<svg version="1.2" xmlns="http://www.w3.org/2000/svg" viewBox="0 0 198 65" width="198" height="65">
	<title>ES6-WM-Home-svg</title>
	<defs>
		<clipPath clipPathUnits="userSpaceOnUse" id="cp1">
			<path d="m0 0h198v65h-198z"/>
		</clipPath>
	</defs>
	<style>
		.s0 { fill: #ffffff } 
	</style>
	<g id="Clip-Path" clip-path="url(#cp1)">
		<g id="Layer">
			<path id="Layer" fill-rule="evenodd" class="s0" d="m122.5 26.6q-0.1 2.3-0.5 4.5l-0.1 0.8h-24.7c0.1 5.4 1.7 8.5 4.9 9.8 1.8 0.8 4.3 1.1 7.5 1.1 4 0 7.5-0.6 10.6-1.8l0.9-0.3 0.8 2.1-0.8 0.3q-1.3 0.5-2.7 0.9c-0.7 0.3-1.8 0.5-3.6 0.7q-2.6 0.4-5.3 0.4-5.2 0-8-1.1c-4.6-1.8-6.6-6-6.6-13 0-7 2.2-11.4 6.7-13 1.9-0.7 4.5-1.1 7.6-1.1 3.2 0 5.9 0.5 8 1.4 3.7 1.5 5.3 3.9 5.3 8.3zm-2.5 3q0.2-1.5 0.2-3c0-3.4-1-5-3.9-6.3-1.7-0.7-4-1.1-6.9-1.1-3 0-5.4 0.3-7 0.9-3.3 1.2-5 4.3-5.2 9.5 0 0 22.8 0 22.8 0z"/>
			<path id="Layer" class="s0" d="m146.6 30.9l-15.4-2.3c-1-0.2-2.3-0.8-2.3-4.4 0-2.2 1-3.6 3-4.3 1.4-0.5 3.6-0.7 6.7-0.7 2.8 0 6.2 0.5 10 1.6l0.9 0.2 0.6-2.2-0.9-0.2c-3.9-1.1-7.5-1.7-10.6-1.7-3.4 0-5.9 0.3-7.6 0.9-2.8 1-4.3 3.2-4.3 6.3 0 5 2.3 6.4 4.3 6.7l15.3 2.3c1.5 0.3 2.4 1 2.4 3.8 0 2.3-0.6 3.4-1 3.8v0.1c-0.6 0.6-1.1 0.8-2 1.1-1.9 0.6-4.2 0.9-7 0.9q-2.2 0-4.4-0.3-1.6-0.1-3.1-0.5l-3.8-1-1 2.2 4.2 1.1q1.7 0.3 3.4 0.5 2.3 0.3 4.6 0.3c3.1 0 5.7-0.3 7.8-1 2.1-0.6 4.6-2.3 4.6-7 0-3.9-1.4-5.8-4.4-6.2"/>
			<path id="Layer" fill-rule="evenodd" class="s0" d="m85.4 31c0 7.8-6.4 14.1-14.2 14.1-7.9 0-14.3-6.3-14.3-14.1 0-7.7 6.4-14 14.3-14 7.8 0 14.2 6.3 14.2 14zm-6.8 0c0-4-3.3-7.3-7.4-7.3-4.1 0-7.4 3.3-7.4 7.3 0 4.1 3.3 7.4 7.4 7.4 4.1 0 7.4-3.3 7.4-7.4z"/>
			<path id="Layer" class="s0" d="m46.2 19.9v24.5h6.6v-26.8h-4.4q-0.5 0-0.9 0.1c-0.6 0.2-1.1 0.7-1.2 1.2q-0.2 0.5-0.1 1z"/>
			<path id="Layer" class="s0" d="m13.5 17.6v26.8h4.5q0.4 0 0.9-0.1c0.6-0.2 1-0.6 1.2-1.2q0.1-0.5 0.1-1v-14.1l13.2 15c0.5 0.5 0.8 0.9 1.3 1.1 0.6 0.3 1.1 0.3 1.7 0.3h4.9v-26.8h-4.5q-0.5 0-0.9 0.1c-0.6 0.2-1.1 0.7-1.2 1.2q-0.1 0.5-0.1 1v14.2l-13.3-15.1c-0.4-0.5-0.7-0.9-1.2-1.1-0.6-0.2-1.1-0.3-1.7-0.3z"/>
			<path id="Layer" fill-rule="evenodd" class="s0" d="m175.9 28.5c3.6 1 4.1 4.1 4.1 7 0 4.9-1.4 7.5-4.8 8.8-1.8 0.6-4 0.9-7.3 0.9-2.5 0-6.1-0.2-8.5-1.4-2.2-1-4.9-4.4-4.9-13.2 0-8.7 2.8-11.1 5.6-12.3 2.2-0.9 4.9-1.4 8.1-1.4 5.6 0 9.1 1.4 9.8 1.6l0.3 0.2-0.8 2.2-0.4-0.1c-1.1-0.4-4-1.4-8.8-1.4-2.8 0-5 0.3-6.8 1.1-2.8 1.3-4 3.7-4.2 8.2 3.3-0.5 7-1 11.2-1 3.2 0 5.7 0.3 7.4 0.8m-1.8 13.4c2.9-1.1 3.3-3.8 3.3-6.3 0-3.5-1-4.5-2.8-5-1.3-0.4-3.1-0.6-6.2-0.6-4.7 0-8.8 0.5-11.1 0.9 0.1 6.2 1.2 9.5 3.8 10.8 1.9 0.9 4.3 1 6.8 1 3.4 0 4.7-0.2 6.2-0.8z"/>
			<path id="Layer" class="s0" d="m43.7 54.7h0.8v9.6h4.4v0.7h-5.2c0 0 0-10.3 0-10.3z"/>
			<path id="Layer" class="s0" d="m55.1 54.7h0.8v10.3h-0.8z"/>
			<path id="Layer" class="s0" d="m63.1 54.7h6.1v0.7h-5.4v4.2h4.3v0.7h-4.3v4.7h-0.7z"/>
			<path id="Layer" class="s0" d="m75.8 54.7h6.2v0.7h-5.4v3.9h4.4v0.7h-4.4v4.3h5.4v0.7h-6.2z"/>
			<path id="Layer" class="s0" d="m97 54.7h0.8v10.3h-0.8z"/>
			<path id="Layer" class="s0" d="m107.5 64.4q0.6 0 1.1-0.2 0.4-0.1 0.8-0.4 0.3-0.3 0.5-0.7 0.1-0.4 0.1-0.9 0-0.4-0.2-0.8-0.2-0.3-0.6-0.6-0.4-0.2-0.9-0.4-0.5-0.2-1.1-0.4-0.5-0.2-1-0.4-0.5-0.2-0.9-0.5-0.4-0.4-0.6-0.8-0.2-0.5-0.2-1.2 0-0.5 0.2-1 0.2-0.5 0.6-0.8 0.4-0.4 1-0.6 0.5-0.2 1.1-0.2 1 0 1.7 0.4 0.8 0.3 1.3 0.8l-0.5 0.6q-0.5-0.5-1.2-0.8-0.6-0.3-1.2-0.3-0.5 0-0.9 0.2-0.4 0.2-0.7 0.4-0.3 0.3-0.5 0.6-0.1 0.4-0.1 0.8 0 0.5 0.2 0.8 0.2 0.3 0.5 0.6 0.4 0.2 0.8 0.4 0.5 0.2 1.1 0.4 0.5 0.2 1.1 0.4 0.5 0.3 0.9 0.6 0.4 0.3 0.7 0.8 0.2 0.4 0.2 1 0 0.6-0.2 1.2-0.3 0.5-0.7 0.9-0.4 0.4-1.1 0.6-0.6 0.2-1.3 0.2-0.8 0-1.7-0.2-0.9-0.3-1.7-1l0.4-0.6q0.3 0.2 0.6 0.4 0.4 0.2 0.8 0.4 0.4 0.1 0.8 0.2 0.4 0.1 0.8 0.1z"/>
			<path id="Layer" fill-rule="evenodd" class="s0" d="m124.8 59.8q0-1.1 0.3-2.1 0.4-0.9 1.1-1.7 0.7-0.7 1.6-1.1 0.9-0.4 2.1-0.4 1.2 0 2.1 0.4 0.9 0.4 1.6 1.1 0.7 0.8 1.1 1.7 0.3 1 0.3 2.1 0 1.2-0.3 2.1-0.4 1-1.1 1.7-0.7 0.7-1.6 1.1-0.9 0.4-2.1 0.4-1.2 0-2.1-0.4-0.9-0.4-1.6-1.1-0.7-0.7-1.1-1.7-0.3-1-0.3-2.1zm9.4 0q0-0.9-0.3-1.7-0.3-0.9-0.8-1.5-0.6-0.6-1.4-1-0.8-0.4-1.8-0.4-1 0-1.8 0.4-0.8 0.4-1.3 1-0.6 0.6-0.9 1.5-0.3 0.8-0.3 1.7 0 1 0.3 1.8 0.3 0.8 0.9 1.5 0.5 0.6 1.3 1 0.8 0.3 1.8 0.3 1 0 1.8-0.3 0.8-0.4 1.4-1 0.5-0.7 0.8-1.5 0.3-0.8 0.3-1.8z"/>
			<path id="Layer" class="s0" d="m142.2 55.8v9.2h-0.8v-10.3h0.9l6.7 9.2v-9.2h0.8v10.3h-0.9c0 0-6.7-9.2-6.7-9.2z"/>
		</g>
	</g>
</svg>