<svg version="1.2" xmlns="http://www.w3.org/2000/svg" viewBox="0 0 198 65" width="198" height="65">
	<title>EC6-WM-Home-svg</title>
	<style>
		.s0 { fill: #ffffff } 
	</style>
	<g id="Layer">
		<path id="Layer" fill-rule="evenodd" class="s0" d="m85 30.8c0 7.7-6.4 14-14.2 14-7.9 0-14.2-6.3-14.2-14 0-7.7 6.3-14 14.2-14 7.8 0 14.2 6.3 14.2 14zm-6.8 0c0-4.1-3.3-7.4-7.4-7.4-4.1 0-7.4 3.3-7.4 7.4 0 4.1 3.3 7.4 7.4 7.4 4.1 0 7.4-3.3 7.4-7.4zm-32.3-11.1q-0.1-0.5 0.1-1c0.1-0.5 0.6-1 1.2-1.2q0.4-0.1 0.9 0h4.4v26.6h-6.6v-24.4q0 0 0 0zm-27.7-2.2q0.9-0.1 1.7 0.2 0.7 0.4 1.3 1.1l13.1 15v-14.1q0-0.5 0.1-1 0.2-0.4 0.5-0.7 0.3-0.3 0.7-0.5 0.5-0.1 1 0h4.4v26.6h-4.9q-0.8 0-1.6-0.3-0.8-0.4-1.3-1.1l-13.2-15v14.1q0.1 0.5-0.1 1c-0.1 0.6-0.6 1-1.2 1.2q-0.4 0.1-0.9 0.1h-4.4v-26.6zm103.8 8.8q0 2.4-0.6 4.6l-0.1 0.5h-24.4c0.1 5.5 1.6 8.5 4.8 9.9 1.1 0.5 3.1 1.1 7.7 1.1 5.6 0 8.7-0.9 11-1.8l0.3-0.1 0.6 2.1h-0.2c-2.2 0.9-5.7 2.1-12 2.1-3.5 0-6.1-0.4-8.1-1.2-4.6-1.7-6.7-5.9-6.7-13 0-7 2.2-11.1 6.9-12.9 2.4-0.9 5.8-1 7.6-1 3.2 0 5.8 0.4 8.1 1.4 3.6 1.4 5.1 3.9 5.1 8.3zm-6.2-6.4c-1.8-0.9-3.8-1.2-6.8-1.2q-4.5 0-7 0.9c-3.3 1.3-5.1 4.6-5.1 9.8h22.5q0.3-1.6 0.3-3.3c0-3.8-1.5-5.2-3.9-6.3q0 0 0 0.1zm34.7 21.3c0 0 0.7 2.2 0.7 2.2-2.8 0.9-5.7 1.3-8.6 1.3-10.4 0-16.4-5.2-16.4-14.1 0-6 2.2-10.1 6.5-12.3 2.2-1.1 5.5-1.7 9.4-1.7 3.1 0 6 0.5 8.9 1.4l-0.7 2.1c-2.6-0.8-5.4-1.2-8.2-1.2-3.4 0-6.2 0.5-8.2 1.5-3.4 1.7-5.2 5.2-5.2 10.1 0 7.7 5 11.9 13.9 11.9 2.7 0 5.4-0.4 7.9-1.2zm26.2-13c2.8 0.8 4 2.9 4 6.9 0 4.9-1.4 7.5-4.7 8.7-1.8 0.6-4 0.9-7.3 0.9-2.5 0-6.1-0.2-8.4-1.4-2.3-1-4.9-4.4-4.9-13.1 0-8.7 2.8-11 5.6-12.2 2.1-1 4.7-1.4 8-1.4 5.5 0 9.1 1.3 9.7 1.6l0.3 0.1-0.8 2.1-0.3-0.2c-1-0.4-4-1.4-8.8-1.4-2.9 0-5.1 0.4-6.9 1.2-2.9 1.3-4.1 3.8-4.2 8.4q5.6-0.9 11.3-1c3.1 0 5.6 0.3 7.4 0.8zm-1.8 13.4c1.5-0.6 3.4-1.8 3.4-6.4 0-3.6-1-4.6-2.9-5.1-1.3-0.4-3.1-0.6-6.3-0.6q-5.6 0-11.1 0.9c0 6.3 1.2 9.7 3.8 11 2 1 4.4 1 6.9 1 3.4 0 4.7-0.2 6.2-0.8z"/>
		<path id="Layer" class="s0" d="m40.1 54.3h0.7v9.6h4.4v0.7h-5.1c0 0 0-10.3 0-10.3z"/>
		<path id="Layer" class="s0" d="m50.6 54.3h0.8v10.3h-0.8z"/>
		<path id="Layer" class="s0" d="m62.3 60v-0.7h4.2v3.6q-0.2 0.3-0.7 0.7-0.4 0.3-0.9 0.6-0.5 0.2-1.2 0.4-0.6 0.2-1.4 0.2-1.3 0-2.2-0.5-1-0.5-1.7-1.2-0.7-0.7-1-1.7-0.4-1-0.4-2 0-1 0.4-1.9 0.3-0.9 1-1.7 0.6-0.7 1.6-1.2 0.9-0.4 2.2-0.4 1 0 2 0.3 1 0.3 1.9 1-0.2 0.1-0.2 0.3-0.1 0-0.1 0-0.1 0.2-0.2 0.4-1.4-1.3-3.4-1.3-1.1 0-1.9 0.4-0.8 0.4-1.3 1-0.6 0.6-0.9 1.4-0.3 0.9-0.3 1.7 0 0.9 0.3 1.7 0.3 0.8 0.9 1.5 0.6 0.6 1.4 1 0.8 0.4 1.9 0.4 1.2 0 2.1-0.4 0.8-0.3 1.4-1v-2.6c0 0-3.5 0-3.5 0z"/>
		<path id="Layer" class="s0" d="m79.9 59.4h-6.5v5.2h-0.8v-10.3h0.8v4.4h6.5v-4.4h0.7v10.3h-0.7z"/>
		<path id="Layer" class="s0" d="m89.3 55.1h-3.2v-0.8h7.3v0.8h-3.3v9.5h-0.8z"/>
		<path id="Layer" class="s0" d="m98.8 54.3h6.3v0.8h-5.5v3.8h4.4v0.7h-4.4v4.3h5.5v0.7h-6.3z"/>
		<path id="Layer" class="s0" d="m111.7 55.5v9.1h-0.8v-10.3h0.8l6.8 9.2v-9.2h0.7v10.3h-0.8c0 0-6.7-9.1-6.7-9.1z"/>
		<path id="Layer" class="s0" d="m141.2 54.3v6.4q0 0.9-0.3 1.7-0.3 0.7-0.8 1.2-0.6 0.6-1.3 0.9-0.8 0.3-1.6 0.3-0.9 0-1.7-0.3-0.7-0.3-1.2-0.9-0.6-0.5-0.9-1.2-0.3-0.8-0.3-1.7v-6.4h0.8v6.5q0 0.7 0.2 1.3 0.2 0.6 0.7 1 0.4 0.5 1 0.7 0.6 0.2 1.4 0.2 0.7 0 1.3-0.2 0.6-0.2 1-0.7 0.4-0.4 0.7-1 0.2-0.6 0.2-1.3v-6.5c0 0 0.8 0 0.8 0z"/>
		<path id="Layer" fill-rule="evenodd" class="s0" d="m147.5 54.3h3.1q0.8 0 1.4 0.3 0.7 0.2 1.1 0.6 0.5 0.5 0.7 1 0.2 0.6 0.2 1.3 0 0.7-0.2 1.3-0.3 0.5-0.8 1-0.4 0.4-1 0.6-0.6 0.2-1.3 0.2h-2.5v4h-0.7c0 0 0-10.3 0-10.3zm5.7 3.2q0-0.5-0.1-1-0.2-0.4-0.6-0.8-0.3-0.3-0.9-0.5-0.5-0.1-1.3-0.1h-2.1v4.8h2.1q0.8 0 1.4-0.2 0.5-0.2 0.9-0.6 0.3-0.3 0.5-0.8 0.1-0.4 0.1-0.8z"/>
	</g>
</svg>