<svg version="1.2" baseProfile="tiny-ps" xmlns="http://www.w3.org/2000/svg" viewBox="0 0 1677 1555" width="1677" height="1555">
	<title>niod-svg</title>
	<style>
		tspan { white-space:pre }
		.shp0 { fill: #000000 } 
	</style>
	<g id="UI-KIt">
		<g id="Logo_White_Desktop">
			<g id="Logo">
				<g id="Group-2">
					<path id="Fill-1" fill-rule="evenodd" class="shp0" d="M1279.71 901.38C1215.02 836.64 1220.5 838.85 1128.79 838.85L548.07 838.85C456.35 838.85 461.84 836.64 397.12 901.38C362.07 936.46 155.65 1143.03 87.47 1211.24C158.91 1355.49 268.92 1473.42 401.39 1554.44C480.72 1475.12 718.53 1237.15 758.14 1197.52C790.62 1165.01 805.01 1152.43 822.61 1147.03C828.22 1145.32 832.8 1144.12 838.42 1144.12C844.18 1144.12 848.63 1145.32 854.23 1147.03C871.83 1152.43 886.23 1165.01 918.71 1197.52L1275.42 1554.44C1407.95 1473.42 1517.94 1355.49 1589.39 1211.24C1521.22 1143.03 1314.78 936.46 1279.71 901.38ZM442 808.46C465.38 783.22 462.1 761.83 485.01 702.4C505.75 648.67 538.09 601.17 578.77 562.86C650.55 495.26 743.97 459.87 838.42 459.85C932.89 459.87 1026.29 495.26 1098.08 562.86C1138.74 601.17 1171.1 648.67 1191.83 702.4C1214.73 761.83 1211.45 783.22 1234.83 808.46C1257.6 833.06 1281.51 838.84 1355.92 838.84L1676.55 838.84C1676.55 596.52 1572.53 374.67 1405.02 220.9C1247.17 75.99 1043.87 0.28 838.42 0.24C632.96 0.28 429.69 75.99 271.81 220.9C104.29 374.67 0.3 596.52 0.3 838.84L320.91 838.84C395.32 838.84 419.25 833.06 442 808.46Z" />
				</g>
			</g>
		</g>
	</g>
</svg>